<svg xmlns="http://www.w3.org/2000/svg" xmlns:cc="http://creativecommons.org/ns#" xmlns:dc="http://purl.org/dc/elements/1.1/" xmlns:rdf="http://www.w3.org/1999/02/22-rdf-syntax-ns#" clip-rule="evenodd" fill-rule="evenodd" stroke-linecap="round" stroke-linejoin="round" stroke-miterlimit="1" version="1.1" viewBox="0 0 32 40" xml:space="preserve" x="0px" y="0px"><rect width="32" height="32" fill="none"/><path d="m16 2c-7.7201 0-14 6.2799-14 14 0 7.7201 6.2799 14 14 14 7.7201 0 14-6.2799 14-14 0-7.7201-6.2799-14-14-14zm0 2c6.6393 0 12 5.3607 12 12 0 6.6393-5.3607 12-12 12-6.6393 0-12-5.3607-12-12 0-6.6393 5.3607-12 12-12z" clip-rule="nonzero" color="#000000" color-rendering="auto" dominant-baseline="auto" fill-rule="nonzero" image-rendering="auto" shape-rendering="auto" solid-color="#000000" style="font-feature-settings:normal;font-variant-alternates:normal;font-variant-caps:normal;font-variant-ligatures:normal;font-variant-numeric:normal;font-variant-position:normal;isolation:auto;mix-blend-mode:normal;shape-padding:0;text-decoration-color:#000000;text-decoration-line:none;text-decoration-style:solid;text-indent:0;text-orientation:mixed;text-transform:none;white-space:normal;"/><path d="m21.977 9a1.0001 1.0001 0 0 0 -0.46289 0.125s-5.0273 2.7934-6.9648 3.8691a1.0001 1.0001 0 0 0 0 2e-3c-0.65187 0.36319-1.1895 0.90086-1.5527 1.5527a1.0001 1.0001 0 0 0 -2e-3 0c-1.0757 1.9375-3.8691 6.9648-3.8691 6.9648a1.0001 1.0001 0 0 0 1.3613 1.3613s5.0273-2.7934 6.9648-3.8691a1.0001 1.0001 0 0 0 0 -2e-3c0.65187-0.36319 1.1895-0.90086 1.5527-1.5527a1.0001 1.0001 0 0 0 2e-3 0c1.0757-1.9375 3.8691-6.9648 3.8691-6.9648a1.0001 1.0001 0 0 0 -0.89844 -1.4863zm-2.5527 3.5762c-0.8877 1.5979-1.5648 2.818-2.168 3.9043-0.18278 0.32701-0.45004 0.59499-0.77734 0.77734-1.0868 0.6034-2.3054 1.2788-3.9023 2.166 0.88717-1.5969 1.5626-2.8155 2.166-3.9023 0.18236-0.3273 0.45034-0.59456 0.77734-0.77734l2e-3 -2e-3c1.0868-0.6034 2.3054-1.2788 3.9023-2.166z" clip-rule="nonzero" color="#000000" color-rendering="auto" dominant-baseline="auto" fill-rule="nonzero" image-rendering="auto" shape-rendering="auto" solid-color="#000000" style="font-feature-settings:normal;font-variant-alternates:normal;font-variant-caps:normal;font-variant-ligatures:normal;font-variant-numeric:normal;font-variant-position:normal;isolation:auto;mix-blend-mode:normal;shape-padding:0;text-decoration-color:#000000;text-decoration-line:none;text-decoration-style:solid;text-indent:0;text-orientation:mixed;text-transform:none;white-space:normal;"/><text x="0" y="47" fill="#000000" font-size="5px" font-weight="bold" font-family="'Helvetica Neue', Helvetica, Arial-Unicode, Arial, Sans-serif"></text><text x="0" y="52" fill="#000000" font-size="5px" font-weight="bold" font-family="'Helvetica Neue', Helvetica, Arial-Unicode, Arial, Sans-serif"></text></svg>