<svg xmlns="http://www.w3.org/2000/svg" 
    viewBox="0 0 66 80" 
    x="0px" 
    y="0px"
>
    <path 
        fill="#000000" 
        d="M230,437 L230,445.141778 C236.784588,446.112237 242,451.947056 242,459 L242,459.5 C242,467.508129 235.508129,474 227.5,474 L214,474 L214,482 C214,483.104569 213.104569,484 212,484 C210.895431,484 210,483.104569 210,482 L210,474 L203,474 C188.088312,474 176,461.911688 176,447 C176,445.895431 176.895431,445 178,445 L210,445 L210,430 C210,424.477153 214.477153,420 220,420 C225.522847,420 230,424.477153 230,430 L230,433 L236,433 C237.104569,433 238,433.895431 238,435 C238,436.104569 237.104569,437 236,437 L230,437 Z M214,445.711829 C219.805203,447.605212 224,453.062732 224,459.5 C224,463.631227 222.27231,467.35893 219.500039,470 L227.5,470 C233.29899,470 238,465.29899 238,459.5 L238,459 C238,453.477153 233.522847,449 228,449 C226.895431,449 226,448.104569 226,447 L226,430 C226,426.686292 223.313708,424 220,424 C216.686292,424 214,426.686292 214,430 L214,445.711829 Z M203,470 L209.5,470 C215.29899,470 220,465.29899 220,459.5 C220,453.70101 215.29899,449 209.5,449 L180.085751,449 C181.099258,460.766063 190.971278,470 203,470 Z" 
        transform="translate(-176 -420)"
    />
        <!-- <text x="0" 
            y="79" 
            fill="#000000" 
            font-size="5px" 
            font-weight="bold" 
            font-family="'Helvetica Neue', Helvetica, Arial-Unicode, Arial, Sans-serif"
        >
            Created by Andrejs Kirma
        </text>
        <text x="0" 
            y="84" 
            fill="#000000" 
            font-size="5px" 
            font-weight="bold" 
            font-family="'Helvetica Neue', Helvetica, Arial-Unicode, Arial, Sans-serif"
        >
            from the Noun Project
        </text> -->
</svg>